<svg width="28" height="26" viewBox="0 0 28 26" fill="none" xmlns="http://www.w3.org/2000/svg">
<path d="M27.7186 6.23139L24.3936 3.66939C24.1676 3.52439 23.922 3.41265 23.6642 3.33759C23.4076 3.25383 23.1402 3.20762 22.8704 3.20039H13.3L14.4214 10.2004H22.8704C23.1 10.2004 23.387 10.1486 23.6628 10.0632C23.9386 9.97779 24.2046 9.86019 24.3922 9.73279L27.7172 7.16799C27.9062 7.04059 28 6.87119 28 6.70039C28 6.52959 27.9062 6.36019 27.7186 6.23139ZM11.9 0.400391H10.5C10.3143 0.400391 10.1363 0.47414 10.005 0.605416C9.87375 0.736691 9.8 0.914739 9.8 1.10039V6.00039H5.1296C4.8972 6.00039 4.6116 6.05219 4.3358 6.13899C4.0586 6.22299 3.794 6.33919 3.6064 6.46939L0.2814 9.03139C0.0924 9.15879 0 9.32959 0 9.50039C0 9.66979 0.0924 9.83919 0.2814 9.96939L3.6064 12.5342C3.794 12.6616 4.0586 12.7792 4.3358 12.8632C4.6116 12.9486 4.8972 13.0004 5.1296 13.0004H9.8V24.9004C9.8 25.086 9.87375 25.2641 10.005 25.3954C10.1363 25.5266 10.3143 25.6004 10.5 25.6004H11.9C12.0857 25.6004 12.2637 25.5266 12.395 25.3954C12.5263 25.2641 12.6 25.086 12.6 24.9004V1.10039C12.6 0.914739 12.5263 0.736691 12.395 0.605416C12.2637 0.47414 12.0857 0.400391 11.9 0.400391Z" fill="#7E41FF"/>
</svg>
