<svg width="21" height="22" viewBox="0 0 21 22" fill="none" xmlns="http://www.w3.org/2000/svg">
<path fill-rule="evenodd" clip-rule="evenodd" d="M10.2243 0C4.70775 0 0.235718 4.47203 0.235718 9.98856C0.235718 15.5051 4.70775 19.9771 10.2243 19.9771C12.5034 19.9771 14.6041 19.2138 16.285 17.9289L19.2938 20.9299C19.6848 21.3199 20.318 21.3191 20.708 20.9281C21.098 20.5371 21.0972 19.9039 20.7062 19.5139L17.7458 16.5612C19.282 14.8047 20.2128 12.5054 20.2128 9.98856C20.2128 4.47203 15.7408 0 10.2243 0ZM2.23572 9.98856C2.23572 5.5766 5.81232 2 10.2243 2C14.6362 2 18.2128 5.5766 18.2128 9.98856C18.2128 14.4005 14.6362 17.9771 10.2243 17.9771C5.81232 17.9771 2.23572 14.4005 2.23572 9.98856Z" fill="#999999"/>
</svg>
