<svg width="16" height="17" viewBox="0 0 16 17" fill="none" xmlns="http://www.w3.org/2000/svg">
<g id="icn">
<mask id="mask0_524_3052" style="mask-type:alpha" maskUnits="userSpaceOnUse" x="0" y="0" width="16" height="17">
<rect id="Bounding box" y="0.5" width="16" height="16" fill="#D9D9D9"/>
</mask>
<g mask="url(#mask0_524_3052)">
<path id="info" d="M8.00025 11.666C8.14203 11.666 8.26075 11.6181 8.35641 11.5222C8.45219 11.4264 8.50008 11.3077 8.50008 11.166V8.33268C8.50008 8.19102 8.45214 8.07224 8.35625 7.97635C8.26036 7.88057 8.14158 7.83268 7.99991 7.83268C7.85814 7.83268 7.73941 7.88057 7.64375 7.97635C7.54797 8.07224 7.50008 8.19102 7.50008 8.33268V11.166C7.50008 11.3077 7.54803 11.4264 7.64391 11.5222C7.7398 11.6181 7.85858 11.666 8.00025 11.666ZM8.00008 6.69168C8.15264 6.69168 8.28053 6.64007 8.38375 6.53685C8.48697 6.43363 8.53858 6.30574 8.53858 6.15318C8.53858 6.00063 8.48697 5.87274 8.38375 5.76952C8.28053 5.6664 8.15264 5.61485 8.00008 5.61485C7.84753 5.61485 7.71964 5.6664 7.61641 5.76952C7.51319 5.87274 7.46158 6.00063 7.46158 6.15318C7.46158 6.30574 7.51319 6.43363 7.61641 6.53685C7.71964 6.64007 7.84753 6.69168 8.00008 6.69168ZM8.00125 14.8327C7.12525 14.8327 6.30186 14.6665 5.53108 14.334C4.7603 14.0016 4.08986 13.5504 3.51975 12.9805C2.94964 12.4106 2.49825 11.7405 2.16558 10.97C1.83303 10.1996 1.66675 9.3764 1.66675 8.50052C1.66675 7.62452 1.83297 6.80113 2.16541 6.03035C2.49786 5.25957 2.94903 4.58913 3.51891 4.01902C4.0888 3.4489 4.75897 2.99752 5.52941 2.66485C6.29986 2.33229 7.12303 2.16602 7.99891 2.16602C8.87491 2.16602 9.6983 2.33224 10.4691 2.66468C11.2399 2.99713 11.9103 3.44829 12.4804 4.01818C13.0505 4.58807 13.5019 5.25824 13.8346 6.02868C14.1671 6.79913 14.3334 7.62229 14.3334 8.49818C14.3334 9.37418 14.1672 10.1976 13.8347 10.9683C13.5023 11.7391 13.0511 12.4096 12.4812 12.9797C11.9114 13.5498 11.2412 14.0012 10.4707 14.3338C9.7003 14.6664 8.87714 14.8327 8.00125 14.8327ZM8.00008 13.8327C9.48897 13.8327 10.7501 13.316 11.7834 12.2827C12.8167 11.2493 13.3334 9.98824 13.3334 8.49935C13.3334 7.01046 12.8167 5.74935 11.7834 4.71602C10.7501 3.68268 9.48897 3.16602 8.00008 3.16602C6.51119 3.16602 5.25008 3.68268 4.21675 4.71602C3.18341 5.74935 2.66675 7.01046 2.66675 8.49935C2.66675 9.98824 3.18341 11.2493 4.21675 12.2827C5.25008 13.316 6.51119 13.8327 8.00008 13.8327Z" fill="#7E41FF"/>
</g>
</g>
</svg>
